solid CATIA STL
  facet normal -1.950900e-001  9.807854e-001  0.000000e+000
    outer loop
      vertex -9.299300e+001  2.000000e+001  5.000000e+000
      vertex -9.299300e+001  2.000000e+001  0.000000e+000
      vertex -9.681983e+001  1.923880e+001  5.000000e+000
    endloop
  endfacet
  facet normal -1.950900e-001  9.807854e-001  0.000000e+000
    outer loop
      vertex -9.681983e+001  1.923880e+001  5.000000e+000
      vertex -9.299300e+001  2.000000e+001  0.000000e+000
      vertex -9.681983e+001  1.923880e+001  0.000000e+000
    endloop
  endfacet
  facet normal -5.555705e-001  8.314694e-001  0.000000e+000
    outer loop
      vertex -9.681983e+001  1.923880e+001  5.000000e+000
      vertex -9.681983e+001  1.923880e+001  0.000000e+000
      vertex -1.000641e+002  1.707107e+001  5.000000e+000
    endloop
  endfacet
  facet normal -5.555705e-001  8.314694e-001  0.000000e+000
    outer loop
      vertex -1.000641e+002  1.707107e+001  5.000000e+000
      vertex -9.681983e+001  1.923880e+001  0.000000e+000
      vertex -1.000641e+002  1.707107e+001  0.000000e+000
    endloop
  endfacet
  facet normal -8.314690e-001  5.555711e-001  0.000000e+000
    outer loop
      vertex -1.000641e+002  1.707107e+001  5.000000e+000
      vertex -1.000641e+002  1.707107e+001  0.000000e+000
      vertex -1.022318e+002  1.382683e+001  5.000000e+000
    endloop
  endfacet
  facet normal -8.314690e-001  5.555711e-001  0.000000e+000
    outer loop
      vertex -1.022318e+002  1.382683e+001  5.000000e+000
      vertex -1.000641e+002  1.707107e+001  0.000000e+000
      vertex -1.022318e+002  1.382683e+001  0.000000e+000
    endloop
  endfacet
  facet normal -9.807856e-001  1.950891e-001  0.000000e+000
    outer loop
      vertex -1.022318e+002  1.382683e+001  5.000000e+000
      vertex -1.022318e+002  1.382683e+001  0.000000e+000
      vertex -1.029930e+002  1.000000e+001  5.000000e+000
    endloop
  endfacet
  facet normal -9.807856e-001  1.950891e-001  0.000000e+000
    outer loop
      vertex -1.029930e+002  1.000000e+001  5.000000e+000
      vertex -1.022318e+002  1.382683e+001  0.000000e+000
      vertex -1.029930e+002  1.000000e+001  0.000000e+000
    endloop
  endfacet
  facet normal  1.950900e-001  9.807854e-001  0.000000e+000
    outer loop
      vertex  9.299300e+001  2.000000e+001  0.000000e+000
      vertex  9.299300e+001  2.000000e+001  5.000000e+000
      vertex  9.681983e+001  1.923880e+001  0.000000e+000
    endloop
  endfacet
  facet normal  1.950900e-001  9.807854e-001  -0.000000e+000
    outer loop
      vertex  9.681983e+001  1.923880e+001  0.000000e+000
      vertex  9.299300e+001  2.000000e+001  5.000000e+000
      vertex  9.681983e+001  1.923880e+001  5.000000e+000
    endloop
  endfacet
  facet normal  5.555705e-001  8.314694e-001  0.000000e+000
    outer loop
      vertex  9.681983e+001  1.923880e+001  0.000000e+000
      vertex  9.681983e+001  1.923880e+001  5.000000e+000
      vertex  1.000641e+002  1.707107e+001  0.000000e+000
    endloop
  endfacet
  facet normal  5.555705e-001  8.314694e-001  -0.000000e+000
    outer loop
      vertex  1.000641e+002  1.707107e+001  0.000000e+000
      vertex  9.681983e+001  1.923880e+001  5.000000e+000
      vertex  1.000641e+002  1.707107e+001  5.000000e+000
    endloop
  endfacet
  facet normal  8.314690e-001  5.555711e-001  0.000000e+000
    outer loop
      vertex  1.000641e+002  1.707107e+001  0.000000e+000
      vertex  1.000641e+002  1.707107e+001  5.000000e+000
      vertex  1.022318e+002  1.382683e+001  0.000000e+000
    endloop
  endfacet
  facet normal  8.314690e-001  5.555711e-001  -0.000000e+000
    outer loop
      vertex  1.022318e+002  1.382683e+001  0.000000e+000
      vertex  1.000641e+002  1.707107e+001  5.000000e+000
      vertex  1.022318e+002  1.382683e+001  5.000000e+000
    endloop
  endfacet
  facet normal  9.807856e-001  1.950891e-001  0.000000e+000
    outer loop
      vertex  1.022318e+002  1.382683e+001  0.000000e+000
      vertex  1.022318e+002  1.382683e+001  5.000000e+000
      vertex  1.029930e+002  1.000000e+001  0.000000e+000
    endloop
  endfacet
  facet normal  9.807856e-001  1.950891e-001  -0.000000e+000
    outer loop
      vertex  1.029930e+002  1.000000e+001  0.000000e+000
      vertex  1.022318e+002  1.382683e+001  5.000000e+000
      vertex  1.029930e+002  1.000000e+001  5.000000e+000
    endloop
  endfacet
  facet normal  0.000000e+000  0.000000e+000 -1.000000e+000
    outer loop
      vertex  9.890651e+001  1.126191e+001  0.000000e+000
      vertex  9.745686e+001  1.141806e+001  0.000000e+000
      vertex  9.681983e+001  1.923880e+001  0.000000e+000
    endloop
  endfacet
  facet normal  0.000000e+000  0.000000e+000 -1.000000e+000
    outer loop
      vertex -9.852953e+001  7.762172e+000  0.000000e+000
      vertex -9.707990e+001  7.918319e+000  0.000000e+000
      vertex -1.000641e+002  2.928932e+000  0.000000e+000
    endloop
  endfacet
  facet normal  0.000000e+000  0.000000e+000 -1.000000e+000
    outer loop
      vertex -1.000641e+002  2.928932e+000  0.000000e+000
      vertex -9.707990e+001  7.918319e+000  0.000000e+000
      vertex  9.707990e+001  7.918319e+000  0.000000e+000
    endloop
  endfacet
  facet normal  0.000000e+000  0.000000e+000 -1.000000e+000
    outer loop
      vertex -1.000641e+002  2.928932e+000  0.000000e+000
      vertex  9.707990e+001  7.918319e+000  0.000000e+000
      vertex -9.681983e+001  7.612047e-001  0.000000e+000
    endloop
  endfacet
  facet normal  0.000000e+000  0.000000e+000 -1.000000e+000
    outer loop
      vertex -9.681983e+001  7.612047e-001  0.000000e+000
      vertex  9.707990e+001  7.918319e+000  0.000000e+000
      vertex  9.852953e+001  7.762172e+000  0.000000e+000
    endloop
  endfacet
  facet normal  0.000000e+000  0.000000e+000 -1.000000e+000
    outer loop
      vertex -9.681983e+001  7.612047e-001  0.000000e+000
      vertex  9.852953e+001  7.762172e+000  0.000000e+000
      vertex  9.681983e+001  7.612047e-001  0.000000e+000
    endloop
  endfacet
  facet normal  0.000000e+000  0.000000e+000 -1.000000e+000
    outer loop
      vertex  9.681983e+001  7.612047e-001  0.000000e+000
      vertex  9.852953e+001  7.762172e+000  0.000000e+000
      vertex  1.022318e+002  6.173166e+000  0.000000e+000
    endloop
  endfacet
  facet normal  0.000000e+000  0.000000e+000 -9.999999e-001
    outer loop
      vertex  9.681983e+001  7.612047e-001  0.000000e+000
      vertex  1.022318e+002  6.173166e+000  0.000000e+000
      vertex  1.000641e+002  2.928932e+000  0.000000e+000
    endloop
  endfacet
  facet normal  0.000000e+000  -0.000000e+000 -1.000000e+000
    outer loop
      vertex  9.852953e+001  7.762172e+000  0.000000e+000
      vertex  9.966499e+001  8.676808e+000  0.000000e+000
      vertex  1.022318e+002  6.173166e+000  0.000000e+000
    endloop
  endfacet
  facet normal  0.000000e+000  0.000000e+000 -1.000000e+000
    outer loop
      vertex  1.022318e+002  6.173166e+000  0.000000e+000
      vertex  9.966499e+001  8.676808e+000  0.000000e+000
      vertex  9.982114e+001  1.012645e+001  0.000000e+000
    endloop
  endfacet
  facet normal  0.000000e+000  0.000000e+000 -1.000000e+000
    outer loop
      vertex  1.022318e+002  6.173166e+000  0.000000e+000
      vertex  9.982114e+001  1.012645e+001  0.000000e+000
      vertex  1.029930e+002  1.000000e+001  0.000000e+000
    endloop
  endfacet
  facet normal  0.000000e+000  0.000000e+000 -1.000000e+000
    outer loop
      vertex  1.029930e+002  1.000000e+001  0.000000e+000
      vertex  9.982114e+001  1.012645e+001  0.000000e+000
      vertex  9.890651e+001  1.126191e+001  0.000000e+000
    endloop
  endfacet
  facet normal  0.000000e+000  0.000000e+000 -1.000000e+000
    outer loop
      vertex  1.029930e+002  1.000000e+001  0.000000e+000
      vertex  9.890651e+001  1.126191e+001  0.000000e+000
      vertex  1.022318e+002  1.382683e+001  0.000000e+000
    endloop
  endfacet
  facet normal  -0.000000e+000  0.000000e+000 -1.000000e+000
    outer loop
      vertex  1.022318e+002  1.382683e+001  0.000000e+000
      vertex  9.890651e+001  1.126191e+001  0.000000e+000
      vertex  9.681983e+001  1.923880e+001  0.000000e+000
    endloop
  endfacet
  facet normal  0.000000e+000  0.000000e+000 -1.000000e+000
    outer loop
      vertex  1.022318e+002  1.382683e+001  0.000000e+000
      vertex  9.681983e+001  1.923880e+001  0.000000e+000
      vertex  1.000641e+002  1.707107e+001  0.000000e+000
    endloop
  endfacet
  facet normal  0.000000e+000  0.000000e+000 -1.000000e+000
    outer loop
      vertex -9.890651e+001  1.126191e+001  0.000000e+000
      vertex -1.000641e+002  1.707107e+001  0.000000e+000
      vertex -9.745686e+001  1.141806e+001  0.000000e+000
    endloop
  endfacet
  facet normal  0.000000e+000  0.000000e+000 -1.000000e+000
    outer loop
      vertex -9.745686e+001  1.141806e+001  0.000000e+000
      vertex -1.000641e+002  1.707107e+001  0.000000e+000
      vertex -9.681983e+001  1.923880e+001  0.000000e+000
    endloop
  endfacet
  facet normal  0.000000e+000  -0.000000e+000 -1.000000e+000
    outer loop
      vertex -9.745686e+001  1.141806e+001  0.000000e+000
      vertex -9.681983e+001  1.923880e+001  0.000000e+000
      vertex  9.681983e+001  1.923880e+001  0.000000e+000
    endloop
  endfacet
  facet normal  0.000000e+000  0.000000e+000 -1.000000e+000
    outer loop
      vertex  9.681983e+001  1.923880e+001  0.000000e+000
      vertex -9.681983e+001  1.923880e+001  0.000000e+000
      vertex -9.299300e+001  2.000000e+001  0.000000e+000
    endloop
  endfacet
  facet normal  0.000000e+000  0.000000e+000 -1.000000e+000
    outer loop
      vertex  9.681983e+001  1.923880e+001  0.000000e+000
      vertex -9.299300e+001  2.000000e+001  0.000000e+000
      vertex  9.299300e+001  2.000000e+001  0.000000e+000
    endloop
  endfacet
  facet normal  0.000000e+000  0.000000e+000 -1.000000e+000
    outer loop
      vertex -1.000641e+002  1.707107e+001  0.000000e+000
      vertex -9.890651e+001  1.126191e+001  0.000000e+000
      vertex -1.022318e+002  1.382683e+001  0.000000e+000
    endloop
  endfacet
  facet normal  0.000000e+000  0.000000e+000 -1.000000e+000
    outer loop
      vertex -1.022318e+002  1.382683e+001  0.000000e+000
      vertex -9.890651e+001  1.126191e+001  0.000000e+000
      vertex -9.982114e+001  1.012645e+001  0.000000e+000
    endloop
  endfacet
  facet normal  -0.000000e+000  0.000000e+000 -1.000000e+000
    outer loop
      vertex -1.022318e+002  1.382683e+001  0.000000e+000
      vertex -9.982114e+001  1.012645e+001  0.000000e+000
      vertex -1.029930e+002  1.000000e+001  0.000000e+000
    endloop
  endfacet
  facet normal  0.000000e+000  0.000000e+000 -1.000000e+000
    outer loop
      vertex -1.029930e+002  1.000000e+001  0.000000e+000
      vertex -9.982114e+001  1.012645e+001  0.000000e+000
      vertex -9.966499e+001  8.676808e+000  0.000000e+000
    endloop
  endfacet
  facet normal  -0.000000e+000  0.000000e+000 -1.000000e+000
    outer loop
      vertex -1.029930e+002  1.000000e+001  0.000000e+000
      vertex -9.966499e+001  8.676808e+000  0.000000e+000
      vertex -1.022318e+002  6.173166e+000  0.000000e+000
    endloop
  endfacet
  facet normal  0.000000e+000  0.000000e+000 -1.000000e+000
    outer loop
      vertex -1.022318e+002  6.173166e+000  0.000000e+000
      vertex -9.966499e+001  8.676808e+000  0.000000e+000
      vertex -9.852953e+001  7.762172e+000  0.000000e+000
    endloop
  endfacet
  facet normal  0.000000e+000  0.000000e+000 -1.000000e+000
    outer loop
      vertex -1.022318e+002  6.173166e+000  0.000000e+000
      vertex -9.852953e+001  7.762172e+000  0.000000e+000
      vertex -1.000641e+002  2.928932e+000  0.000000e+000
    endloop
  endfacet
  facet normal  0.000000e+000  0.000000e+000 -1.000000e+000
    outer loop
      vertex  9.681983e+001  1.923880e+001  0.000000e+000
      vertex  9.745686e+001  1.141806e+001  0.000000e+000
      vertex -9.745686e+001  1.141806e+001  0.000000e+000
    endloop
  endfacet
  facet normal  0.000000e+000  0.000000e+000 -1.000000e+000
    outer loop
      vertex -9.745686e+001  1.141806e+001  0.000000e+000
      vertex  9.745686e+001  1.141806e+001  0.000000e+000
      vertex  9.632140e+001  1.050342e+001  0.000000e+000
    endloop
  endfacet
  facet normal  0.000000e+000  0.000000e+000 -1.000000e+000
    outer loop
      vertex -9.745686e+001  1.141806e+001  0.000000e+000
      vertex  9.632140e+001  1.050342e+001  0.000000e+000
      vertex -9.632140e+001  1.050342e+001  0.000000e+000
    endloop
  endfacet
  facet normal  0.000000e+000  0.000000e+000 -1.000000e+000
    outer loop
      vertex -9.632140e+001  1.050342e+001  0.000000e+000
      vertex  9.632140e+001  1.050342e+001  0.000000e+000
      vertex  9.616526e+001  9.053781e+000  0.000000e+000
    endloop
  endfacet
  facet normal  0.000000e+000  0.000000e+000 -1.000000e+000
    outer loop
      vertex -9.632140e+001  1.050342e+001  0.000000e+000
      vertex  9.616526e+001  9.053781e+000  0.000000e+000
      vertex -9.616526e+001  9.053781e+000  0.000000e+000
    endloop
  endfacet
  facet normal  0.000000e+000  0.000000e+000 -1.000000e+000
    outer loop
      vertex -9.616526e+001  9.053781e+000  0.000000e+000
      vertex  9.616526e+001  9.053781e+000  0.000000e+000
      vertex  9.707990e+001  7.918319e+000  0.000000e+000
    endloop
  endfacet
  facet normal  0.000000e+000  0.000000e+000 -9.999999e-001
    outer loop
      vertex -9.616526e+001  9.053781e+000  0.000000e+000
      vertex  9.707990e+001  7.918319e+000  0.000000e+000
      vertex -9.707990e+001  7.918319e+000  0.000000e+000
    endloop
  endfacet
  facet normal  0.000000e+000  0.000000e+000 -1.000000e+000
    outer loop
      vertex -9.299300e+001  0.000000e+000  0.000000e+000
      vertex -9.681983e+001  7.612047e-001  0.000000e+000
      vertex  9.299300e+001  0.000000e+000  0.000000e+000
    endloop
  endfacet
  facet normal  0.000000e+000  0.000000e+000 -9.999999e-001
    outer loop
      vertex  9.299300e+001  0.000000e+000  0.000000e+000
      vertex -9.681983e+001  7.612047e-001  0.000000e+000
      vertex  9.681983e+001  7.612047e-001  0.000000e+000
    endloop
  endfacet
  facet normal  0.000000e+000  1.000000e+000  -0.000000e+000
    outer loop
      vertex  9.299300e+001  2.000000e+001  5.000000e+000
      vertex  9.299300e+001  2.000000e+001  0.000000e+000
      vertex -9.299300e+001  2.000000e+001  5.000000e+000
    endloop
  endfacet
  facet normal  0.000000e+000  1.000000e+000  0.000000e+000
    outer loop
      vertex -9.299300e+001  2.000000e+001  5.000000e+000
      vertex  9.299300e+001  2.000000e+001  0.000000e+000
      vertex -9.299300e+001  2.000000e+001  0.000000e+000
    endloop
  endfacet
  facet normal  0.000000e+000 -1.000000e+000  0.000000e+000
    outer loop
      vertex -9.299300e+001  0.000000e+000  5.000000e+000
      vertex -9.299300e+001  0.000000e+000  0.000000e+000
      vertex  9.299300e+001  0.000000e+000  5.000000e+000
    endloop
  endfacet
  facet normal  0.000000e+000 -1.000000e+000  -0.000000e+000
    outer loop
      vertex  9.299300e+001  0.000000e+000  5.000000e+000
      vertex -9.299300e+001  0.000000e+000  0.000000e+000
      vertex  9.299300e+001  0.000000e+000  0.000000e+000
    endloop
  endfacet
  facet normal  -0.000000e+000  -0.000000e+000  1.000000e+000
    outer loop
      vertex  9.681983e+001  1.923880e+001  5.000000e+000
      vertex  9.745686e+001  1.141806e+001  5.000000e+000
      vertex  9.890651e+001  1.126191e+001  5.000000e+000
    endloop
  endfacet
  facet normal  0.000000e+000  0.000000e+000  9.999999e-001
    outer loop
      vertex  1.000641e+002  2.928932e+000  5.000000e+000
      vertex  1.022318e+002  6.173166e+000  5.000000e+000
      vertex  9.681983e+001  7.612047e-001  5.000000e+000
    endloop
  endfacet
  facet normal  0.000000e+000  0.000000e+000  1.000000e+000
    outer loop
      vertex  9.681983e+001  7.612047e-001  5.000000e+000
      vertex  1.022318e+002  6.173166e+000  5.000000e+000
      vertex  9.852953e+001  7.762172e+000  5.000000e+000
    endloop
  endfacet
  facet normal  0.000000e+000  0.000000e+000  1.000000e+000
    outer loop
      vertex  9.681983e+001  7.612047e-001  5.000000e+000
      vertex  9.852953e+001  7.762172e+000  5.000000e+000
      vertex -9.681983e+001  7.612047e-001  5.000000e+000
    endloop
  endfacet
  facet normal  0.000000e+000  0.000000e+000  1.000000e+000
    outer loop
      vertex -9.681983e+001  7.612047e-001  5.000000e+000
      vertex  9.852953e+001  7.762172e+000  5.000000e+000
      vertex  9.707990e+001  7.918319e+000  5.000000e+000
    endloop
  endfacet
  facet normal  0.000000e+000  0.000000e+000  1.000000e+000
    outer loop
      vertex -9.681983e+001  7.612047e-001  5.000000e+000
      vertex  9.707990e+001  7.918319e+000  5.000000e+000
      vertex -1.000641e+002  2.928932e+000  5.000000e+000
    endloop
  endfacet
  facet normal  0.000000e+000  0.000000e+000  1.000000e+000
    outer loop
      vertex -1.000641e+002  2.928932e+000  5.000000e+000
      vertex  9.707990e+001  7.918319e+000  5.000000e+000
      vertex -9.707990e+001  7.918319e+000  5.000000e+000
    endloop
  endfacet
  facet normal  0.000000e+000  0.000000e+000  1.000000e+000
    outer loop
      vertex -1.000641e+002  2.928932e+000  5.000000e+000
      vertex -9.707990e+001  7.918319e+000  5.000000e+000
      vertex -9.852953e+001  7.762172e+000  5.000000e+000
    endloop
  endfacet
  facet normal  0.000000e+000  0.000000e+000  1.000000e+000
    outer loop
      vertex  1.000641e+002  1.707107e+001  5.000000e+000
      vertex  9.681983e+001  1.923880e+001  5.000000e+000
      vertex  1.022318e+002  1.382683e+001  5.000000e+000
    endloop
  endfacet
  facet normal  0.000000e+000  0.000000e+000  1.000000e+000
    outer loop
      vertex  1.022318e+002  1.382683e+001  5.000000e+000
      vertex  9.681983e+001  1.923880e+001  5.000000e+000
      vertex  9.890651e+001  1.126191e+001  5.000000e+000
    endloop
  endfacet
  facet normal  -0.000000e+000  0.000000e+000  1.000000e+000
    outer loop
      vertex  1.022318e+002  1.382683e+001  5.000000e+000
      vertex  9.890651e+001  1.126191e+001  5.000000e+000
      vertex  1.029930e+002  1.000000e+001  5.000000e+000
    endloop
  endfacet
  facet normal  0.000000e+000  0.000000e+000  1.000000e+000
    outer loop
      vertex  1.029930e+002  1.000000e+001  5.000000e+000
      vertex  9.890651e+001  1.126191e+001  5.000000e+000
      vertex  9.982114e+001  1.012645e+001  5.000000e+000
    endloop
  endfacet
  facet normal  0.000000e+000  0.000000e+000  1.000000e+000
    outer loop
      vertex  1.029930e+002  1.000000e+001  5.000000e+000
      vertex  9.982114e+001  1.012645e+001  5.000000e+000
      vertex  1.022318e+002  6.173166e+000  5.000000e+000
    endloop
  endfacet
  facet normal  0.000000e+000  0.000000e+000  1.000000e+000
    outer loop
      vertex  1.022318e+002  6.173166e+000  5.000000e+000
      vertex  9.982114e+001  1.012645e+001  5.000000e+000
      vertex  9.966499e+001  8.676808e+000  5.000000e+000
    endloop
  endfacet
  facet normal  0.000000e+000  0.000000e+000  1.000000e+000
    outer loop
      vertex  1.022318e+002  6.173166e+000  5.000000e+000
      vertex  9.966499e+001  8.676808e+000  5.000000e+000
      vertex  9.852953e+001  7.762172e+000  5.000000e+000
    endloop
  endfacet
  facet normal  -0.000000e+000  0.000000e+000  1.000000e+000
    outer loop
      vertex  9.299300e+001  2.000000e+001  5.000000e+000
      vertex -9.299300e+001  2.000000e+001  5.000000e+000
      vertex  9.681983e+001  1.923880e+001  5.000000e+000
    endloop
  endfacet
  facet normal  0.000000e+000  0.000000e+000  1.000000e+000
    outer loop
      vertex  9.681983e+001  1.923880e+001  5.000000e+000
      vertex -9.299300e+001  2.000000e+001  5.000000e+000
      vertex -9.681983e+001  1.923880e+001  5.000000e+000
    endloop
  endfacet
  facet normal  -0.000000e+000  0.000000e+000  1.000000e+000
    outer loop
      vertex  9.681983e+001  1.923880e+001  5.000000e+000
      vertex -9.681983e+001  1.923880e+001  5.000000e+000
      vertex -9.745686e+001  1.141806e+001  5.000000e+000
    endloop
  endfacet
  facet normal  0.000000e+000  -0.000000e+000  1.000000e+000
    outer loop
      vertex -9.745686e+001  1.141806e+001  5.000000e+000
      vertex -9.681983e+001  1.923880e+001  5.000000e+000
      vertex -1.000641e+002  1.707107e+001  5.000000e+000
    endloop
  endfacet
  facet normal  0.000000e+000  0.000000e+000  1.000000e+000
    outer loop
      vertex -9.745686e+001  1.141806e+001  5.000000e+000
      vertex -1.000641e+002  1.707107e+001  5.000000e+000
      vertex -9.890651e+001  1.126191e+001  5.000000e+000
    endloop
  endfacet
  facet normal  0.000000e+000  0.000000e+000  1.000000e+000
    outer loop
      vertex -9.890651e+001  1.126191e+001  5.000000e+000
      vertex -1.000641e+002  1.707107e+001  5.000000e+000
      vertex -1.022318e+002  1.382683e+001  5.000000e+000
    endloop
  endfacet
  facet normal  0.000000e+000  0.000000e+000  1.000000e+000
    outer loop
      vertex -9.890651e+001  1.126191e+001  5.000000e+000
      vertex -1.022318e+002  1.382683e+001  5.000000e+000
      vertex -9.982114e+001  1.012645e+001  5.000000e+000
    endloop
  endfacet
  facet normal  0.000000e+000  0.000000e+000  1.000000e+000
    outer loop
      vertex -9.982114e+001  1.012645e+001  5.000000e+000
      vertex -1.022318e+002  1.382683e+001  5.000000e+000
      vertex -1.029930e+002  1.000000e+001  5.000000e+000
    endloop
  endfacet
  facet normal  -0.000000e+000  0.000000e+000  1.000000e+000
    outer loop
      vertex -9.982114e+001  1.012645e+001  5.000000e+000
      vertex -1.029930e+002  1.000000e+001  5.000000e+000
      vertex -9.966499e+001  8.676808e+000  5.000000e+000
    endloop
  endfacet
  facet normal  0.000000e+000  0.000000e+000  1.000000e+000
    outer loop
      vertex -9.966499e+001  8.676808e+000  5.000000e+000
      vertex -1.029930e+002  1.000000e+001  5.000000e+000
      vertex -1.022318e+002  6.173166e+000  5.000000e+000
    endloop
  endfacet
  facet normal  0.000000e+000  0.000000e+000  1.000000e+000
    outer loop
      vertex -9.966499e+001  8.676808e+000  5.000000e+000
      vertex -1.022318e+002  6.173166e+000  5.000000e+000
      vertex -9.852953e+001  7.762172e+000  5.000000e+000
    endloop
  endfacet
  facet normal  0.000000e+000  0.000000e+000  1.000000e+000
    outer loop
      vertex -9.852953e+001  7.762172e+000  5.000000e+000
      vertex -1.022318e+002  6.173166e+000  5.000000e+000
      vertex -1.000641e+002  2.928932e+000  5.000000e+000
    endloop
  endfacet
  facet normal  0.000000e+000  0.000000e+000  9.999999e-001
    outer loop
      vertex -9.707990e+001  7.918319e+000  5.000000e+000
      vertex  9.707990e+001  7.918319e+000  5.000000e+000
      vertex -9.616526e+001  9.053781e+000  5.000000e+000
    endloop
  endfacet
  facet normal  -0.000000e+000  0.000000e+000  1.000000e+000
    outer loop
      vertex -9.616526e+001  9.053781e+000  5.000000e+000
      vertex  9.707990e+001  7.918319e+000  5.000000e+000
      vertex  9.616526e+001  9.053781e+000  5.000000e+000
    endloop
  endfacet
  facet normal  0.000000e+000  0.000000e+000  1.000000e+000
    outer loop
      vertex -9.616526e+001  9.053781e+000  5.000000e+000
      vertex  9.616526e+001  9.053781e+000  5.000000e+000
      vertex -9.632140e+001  1.050342e+001  5.000000e+000
    endloop
  endfacet
  facet normal  -0.000000e+000  0.000000e+000  1.000000e+000
    outer loop
      vertex -9.632140e+001  1.050342e+001  5.000000e+000
      vertex  9.616526e+001  9.053781e+000  5.000000e+000
      vertex  9.632140e+001  1.050342e+001  5.000000e+000
    endloop
  endfacet
  facet normal  0.000000e+000  0.000000e+000  1.000000e+000
    outer loop
      vertex -9.632140e+001  1.050342e+001  5.000000e+000
      vertex  9.632140e+001  1.050342e+001  5.000000e+000
      vertex -9.745686e+001  1.141806e+001  5.000000e+000
    endloop
  endfacet
  facet normal  -0.000000e+000  0.000000e+000  1.000000e+000
    outer loop
      vertex -9.745686e+001  1.141806e+001  5.000000e+000
      vertex  9.632140e+001  1.050342e+001  5.000000e+000
      vertex  9.745686e+001  1.141806e+001  5.000000e+000
    endloop
  endfacet
  facet normal  0.000000e+000  0.000000e+000  1.000000e+000
    outer loop
      vertex -9.745686e+001  1.141806e+001  5.000000e+000
      vertex  9.745686e+001  1.141806e+001  5.000000e+000
      vertex  9.681983e+001  1.923880e+001  5.000000e+000
    endloop
  endfacet
  facet normal  0.000000e+000  0.000000e+000  1.000000e+000
    outer loop
      vertex -9.299300e+001  0.000000e+000  5.000000e+000
      vertex  9.299300e+001  0.000000e+000  5.000000e+000
      vertex -9.681983e+001  7.612047e-001  5.000000e+000
    endloop
  endfacet
  facet normal  -0.000000e+000  0.000000e+000  9.999999e-001
    outer loop
      vertex -9.681983e+001  7.612047e-001  5.000000e+000
      vertex  9.299300e+001  0.000000e+000  5.000000e+000
      vertex  9.681983e+001  7.612047e-001  5.000000e+000
    endloop
  endfacet
  facet normal -9.807855e-001 -1.950892e-001  0.000000e+000
    outer loop
      vertex -1.029930e+002  1.000000e+001  5.000000e+000
      vertex -1.029930e+002  1.000000e+001  0.000000e+000
      vertex -1.022318e+002  6.173166e+000  5.000000e+000
    endloop
  endfacet
  facet normal -9.807855e-001 -1.950892e-001  -0.000000e+000
    outer loop
      vertex -1.022318e+002  6.173166e+000  5.000000e+000
      vertex -1.029930e+002  1.000000e+001  0.000000e+000
      vertex -1.022318e+002  6.173166e+000  0.000000e+000
    endloop
  endfacet
  facet normal -8.314691e-001 -5.555710e-001  0.000000e+000
    outer loop
      vertex -1.022318e+002  6.173166e+000  5.000000e+000
      vertex -1.022318e+002  6.173166e+000  0.000000e+000
      vertex -1.000641e+002  2.928932e+000  5.000000e+000
    endloop
  endfacet
  facet normal -8.314691e-001 -5.555710e-001  -0.000000e+000
    outer loop
      vertex -1.000641e+002  2.928932e+000  5.000000e+000
      vertex -1.022318e+002  6.173166e+000  0.000000e+000
      vertex -1.000641e+002  2.928932e+000  0.000000e+000
    endloop
  endfacet
  facet normal -5.555704e-001 -8.314695e-001  0.000000e+000
    outer loop
      vertex -1.000641e+002  2.928932e+000  5.000000e+000
      vertex -1.000641e+002  2.928932e+000  0.000000e+000
      vertex -9.681983e+001  7.612047e-001  5.000000e+000
    endloop
  endfacet
  facet normal -5.555704e-001 -8.314695e-001  -0.000000e+000
    outer loop
      vertex -9.681983e+001  7.612047e-001  5.000000e+000
      vertex -1.000641e+002  2.928932e+000  0.000000e+000
      vertex -9.681983e+001  7.612047e-001  0.000000e+000
    endloop
  endfacet
  facet normal -1.950903e-001 -9.807853e-001  0.000000e+000
    outer loop
      vertex -9.681983e+001  7.612047e-001  5.000000e+000
      vertex -9.681983e+001  7.612047e-001  0.000000e+000
      vertex -9.299300e+001  0.000000e+000  5.000000e+000
    endloop
  endfacet
  facet normal -1.950903e-001 -9.807853e-001  -0.000000e+000
    outer loop
      vertex -9.299300e+001  0.000000e+000  5.000000e+000
      vertex -9.681983e+001  7.612047e-001  0.000000e+000
      vertex -9.299300e+001  0.000000e+000  0.000000e+000
    endloop
  endfacet
  facet normal -7.787682e-001  6.273117e-001  0.000000e+000
    outer loop
      vertex -9.707990e+001  7.918319e+000  0.000000e+000
      vertex -9.616526e+001  9.053781e+000  5.000000e+000
      vertex -9.616526e+001  9.053781e+000  0.000000e+000
    endloop
  endfacet
  facet normal -9.942490e-001 -1.070924e-001  0.000000e+000
    outer loop
      vertex -9.616526e+001  9.053781e+000  0.000000e+000
      vertex -9.616526e+001  9.053781e+000  5.000000e+000
      vertex -9.632140e+001  1.050342e+001  5.000000e+000
    endloop
  endfacet
  facet normal -9.942490e-001 -1.070924e-001  -0.000000e+000
    outer loop
      vertex -9.616526e+001  9.053781e+000  0.000000e+000
      vertex -9.632140e+001  1.050342e+001  5.000000e+000
      vertex -9.632140e+001  1.050342e+001  0.000000e+000
    endloop
  endfacet
  facet normal -7.787682e-001  6.273117e-001  0.000000e+000
    outer loop
      vertex -9.616526e+001  9.053781e+000  5.000000e+000
      vertex -9.707990e+001  7.918319e+000  0.000000e+000
      vertex -9.707990e+001  7.918319e+000  5.000000e+000
    endloop
  endfacet
  facet normal -1.070950e-001  9.942489e-001  0.000000e+000
    outer loop
      vertex -9.707990e+001  7.918319e+000  5.000000e+000
      vertex -9.707990e+001  7.918319e+000  0.000000e+000
      vertex -9.852953e+001  7.762172e+000  0.000000e+000
    endloop
  endfacet
  facet normal -1.070950e-001  9.942489e-001  0.000000e+000
    outer loop
      vertex -9.707990e+001  7.918319e+000  5.000000e+000
      vertex -9.852953e+001  7.762172e+000  0.000000e+000
      vertex -9.852953e+001  7.762172e+000  5.000000e+000
    endloop
  endfacet
  facet normal  6.273131e-001  7.787671e-001  0.000000e+000
    outer loop
      vertex -9.852953e+001  7.762172e+000  5.000000e+000
      vertex -9.852953e+001  7.762172e+000  0.000000e+000
      vertex -9.966499e+001  8.676808e+000  0.000000e+000
    endloop
  endfacet
  facet normal  6.273131e-001  7.787671e-001  -0.000000e+000
    outer loop
      vertex -9.852953e+001  7.762172e+000  5.000000e+000
      vertex -9.966499e+001  8.676808e+000  0.000000e+000
      vertex -9.966499e+001  8.676808e+000  5.000000e+000
    endloop
  endfacet
  facet normal  7.787682e-001 -6.273117e-001  0.000000e+000
    outer loop
      vertex -9.890651e+001  1.126191e+001  0.000000e+000
      vertex -9.982114e+001  1.012645e+001  5.000000e+000
      vertex -9.982114e+001  1.012645e+001  0.000000e+000
    endloop
  endfacet
  facet normal  9.942485e-001  1.070976e-001  -0.000000e+000
    outer loop
      vertex -9.982114e+001  1.012645e+001  0.000000e+000
      vertex -9.982114e+001  1.012645e+001  5.000000e+000
      vertex -9.966499e+001  8.676808e+000  5.000000e+000
    endloop
  endfacet
  facet normal  9.942485e-001  1.070976e-001  0.000000e+000
    outer loop
      vertex -9.982114e+001  1.012645e+001  0.000000e+000
      vertex -9.966499e+001  8.676808e+000  5.000000e+000
      vertex -9.966499e+001  8.676808e+000  0.000000e+000
    endloop
  endfacet
  facet normal  7.787682e-001 -6.273117e-001  0.000000e+000
    outer loop
      vertex -9.982114e+001  1.012645e+001  5.000000e+000
      vertex -9.890651e+001  1.126191e+001  0.000000e+000
      vertex -9.890651e+001  1.126191e+001  5.000000e+000
    endloop
  endfacet
  facet normal  1.070944e-001 -9.942488e-001  0.000000e+000
    outer loop
      vertex -9.890651e+001  1.126191e+001  5.000000e+000
      vertex -9.890651e+001  1.126191e+001  0.000000e+000
      vertex -9.745686e+001  1.141806e+001  0.000000e+000
    endloop
  endfacet
  facet normal  1.070944e-001 -9.942488e-001  0.000000e+000
    outer loop
      vertex -9.890651e+001  1.126191e+001  5.000000e+000
      vertex -9.745686e+001  1.141806e+001  0.000000e+000
      vertex -9.745686e+001  1.141806e+001  5.000000e+000
    endloop
  endfacet
  facet normal -6.273131e-001 -7.787671e-001  -0.000000e+000
    outer loop
      vertex -9.745686e+001  1.141806e+001  5.000000e+000
      vertex -9.745686e+001  1.141806e+001  0.000000e+000
      vertex -9.632140e+001  1.050342e+001  0.000000e+000
    endloop
  endfacet
  facet normal -6.273131e-001 -7.787671e-001  0.000000e+000
    outer loop
      vertex -9.745686e+001  1.141806e+001  5.000000e+000
      vertex -9.632140e+001  1.050342e+001  0.000000e+000
      vertex -9.632140e+001  1.050342e+001  5.000000e+000
    endloop
  endfacet
  facet normal  9.807855e-001 -1.950892e-001  0.000000e+000
    outer loop
      vertex  1.029930e+002  1.000000e+001  0.000000e+000
      vertex  1.029930e+002  1.000000e+001  5.000000e+000
      vertex  1.022318e+002  6.173166e+000  0.000000e+000
    endloop
  endfacet
  facet normal  9.807855e-001 -1.950892e-001  0.000000e+000
    outer loop
      vertex  1.022318e+002  6.173166e+000  0.000000e+000
      vertex  1.029930e+002  1.000000e+001  5.000000e+000
      vertex  1.022318e+002  6.173166e+000  5.000000e+000
    endloop
  endfacet
  facet normal  8.314691e-001 -5.555710e-001  0.000000e+000
    outer loop
      vertex  1.022318e+002  6.173166e+000  0.000000e+000
      vertex  1.022318e+002  6.173166e+000  5.000000e+000
      vertex  1.000641e+002  2.928932e+000  0.000000e+000
    endloop
  endfacet
  facet normal  8.314691e-001 -5.555710e-001  0.000000e+000
    outer loop
      vertex  1.000641e+002  2.928932e+000  0.000000e+000
      vertex  1.022318e+002  6.173166e+000  5.000000e+000
      vertex  1.000641e+002  2.928932e+000  5.000000e+000
    endloop
  endfacet
  facet normal  5.555704e-001 -8.314695e-001  0.000000e+000
    outer loop
      vertex  1.000641e+002  2.928932e+000  0.000000e+000
      vertex  1.000641e+002  2.928932e+000  5.000000e+000
      vertex  9.681983e+001  7.612047e-001  0.000000e+000
    endloop
  endfacet
  facet normal  5.555704e-001 -8.314695e-001  0.000000e+000
    outer loop
      vertex  9.681983e+001  7.612047e-001  0.000000e+000
      vertex  1.000641e+002  2.928932e+000  5.000000e+000
      vertex  9.681983e+001  7.612047e-001  5.000000e+000
    endloop
  endfacet
  facet normal  1.950903e-001 -9.807853e-001  0.000000e+000
    outer loop
      vertex  9.681983e+001  7.612047e-001  0.000000e+000
      vertex  9.681983e+001  7.612047e-001  5.000000e+000
      vertex  9.299300e+001  0.000000e+000  0.000000e+000
    endloop
  endfacet
  facet normal  1.950903e-001 -9.807853e-001  0.000000e+000
    outer loop
      vertex  9.299300e+001  0.000000e+000  0.000000e+000
      vertex  9.681983e+001  7.612047e-001  5.000000e+000
      vertex  9.299300e+001  0.000000e+000  5.000000e+000
    endloop
  endfacet
  facet normal  7.787682e-001  6.273117e-001  -0.000000e+000
    outer loop
      vertex  9.707990e+001  7.918319e+000  5.000000e+000
      vertex  9.616526e+001  9.053781e+000  0.000000e+000
      vertex  9.616526e+001  9.053781e+000  5.000000e+000
    endloop
  endfacet
  facet normal  9.942490e-001 -1.070924e-001  0.000000e+000
    outer loop
      vertex  9.616526e+001  9.053781e+000  5.000000e+000
      vertex  9.616526e+001  9.053781e+000  0.000000e+000
      vertex  9.632140e+001  1.050342e+001  0.000000e+000
    endloop
  endfacet
  facet normal  9.942490e-001 -1.070924e-001  0.000000e+000
    outer loop
      vertex  9.616526e+001  9.053781e+000  5.000000e+000
      vertex  9.632140e+001  1.050342e+001  0.000000e+000
      vertex  9.632140e+001  1.050342e+001  5.000000e+000
    endloop
  endfacet
  facet normal  7.787682e-001  6.273117e-001  0.000000e+000
    outer loop
      vertex  9.616526e+001  9.053781e+000  0.000000e+000
      vertex  9.707990e+001  7.918319e+000  5.000000e+000
      vertex  9.707990e+001  7.918319e+000  0.000000e+000
    endloop
  endfacet
  facet normal  1.070950e-001  9.942489e-001  -0.000000e+000
    outer loop
      vertex  9.707990e+001  7.918319e+000  0.000000e+000
      vertex  9.707990e+001  7.918319e+000  5.000000e+000
      vertex  9.852953e+001  7.762172e+000  5.000000e+000
    endloop
  endfacet
  facet normal  1.070950e-001  9.942489e-001  0.000000e+000
    outer loop
      vertex  9.707990e+001  7.918319e+000  0.000000e+000
      vertex  9.852953e+001  7.762172e+000  5.000000e+000
      vertex  9.852953e+001  7.762172e+000  0.000000e+000
    endloop
  endfacet
  facet normal -6.273131e-001  7.787671e-001  0.000000e+000
    outer loop
      vertex  9.852953e+001  7.762172e+000  0.000000e+000
      vertex  9.852953e+001  7.762172e+000  5.000000e+000
      vertex  9.966499e+001  8.676808e+000  5.000000e+000
    endloop
  endfacet
  facet normal -6.273131e-001  7.787671e-001  0.000000e+000
    outer loop
      vertex  9.852953e+001  7.762172e+000  0.000000e+000
      vertex  9.966499e+001  8.676808e+000  5.000000e+000
      vertex  9.966499e+001  8.676808e+000  0.000000e+000
    endloop
  endfacet
  facet normal -7.787682e-001 -6.273117e-001  0.000000e+000
    outer loop
      vertex  9.890651e+001  1.126191e+001  5.000000e+000
      vertex  9.982114e+001  1.012645e+001  0.000000e+000
      vertex  9.982114e+001  1.012645e+001  5.000000e+000
    endloop
  endfacet
  facet normal -9.942485e-001  1.070976e-001  0.000000e+000
    outer loop
      vertex  9.982114e+001  1.012645e+001  5.000000e+000
      vertex  9.982114e+001  1.012645e+001  0.000000e+000
      vertex  9.966499e+001  8.676808e+000  0.000000e+000
    endloop
  endfacet
  facet normal -9.942485e-001  1.070976e-001  0.000000e+000
    outer loop
      vertex  9.982114e+001  1.012645e+001  5.000000e+000
      vertex  9.966499e+001  8.676808e+000  0.000000e+000
      vertex  9.966499e+001  8.676808e+000  5.000000e+000
    endloop
  endfacet
  facet normal -7.787682e-001 -6.273117e-001  -0.000000e+000
    outer loop
      vertex  9.982114e+001  1.012645e+001  0.000000e+000
      vertex  9.890651e+001  1.126191e+001  5.000000e+000
      vertex  9.890651e+001  1.126191e+001  0.000000e+000
    endloop
  endfacet
  facet normal -1.070944e-001 -9.942488e-001  0.000000e+000
    outer loop
      vertex  9.890651e+001  1.126191e+001  0.000000e+000
      vertex  9.890651e+001  1.126191e+001  5.000000e+000
      vertex  9.745686e+001  1.141806e+001  5.000000e+000
    endloop
  endfacet
  facet normal -1.070944e-001 -9.942488e-001  -0.000000e+000
    outer loop
      vertex  9.890651e+001  1.126191e+001  0.000000e+000
      vertex  9.745686e+001  1.141806e+001  5.000000e+000
      vertex  9.745686e+001  1.141806e+001  0.000000e+000
    endloop
  endfacet
  facet normal  6.273131e-001 -7.787671e-001  0.000000e+000
    outer loop
      vertex  9.745686e+001  1.141806e+001  0.000000e+000
      vertex  9.745686e+001  1.141806e+001  5.000000e+000
      vertex  9.632140e+001  1.050342e+001  5.000000e+000
    endloop
  endfacet
  facet normal  6.273131e-001 -7.787671e-001  0.000000e+000
    outer loop
      vertex  9.745686e+001  1.141806e+001  0.000000e+000
      vertex  9.632140e+001  1.050342e+001  5.000000e+000
      vertex  9.632140e+001  1.050342e+001  0.000000e+000
    endloop
  endfacet
endsolid CATIA STL
